<svg width="14" height="13" viewBox="0 0 14 13" fill="none" xmlns="http://www.w3.org/2000/svg">
<path d="M7.18225 5.79759e-05C7.10431 0.00018895 7.02737 0.0181001 6.957 0.0524971C6.88662 0.086894 6.82456 0.136918 6.7753 0.198954L6.73461 0.229942C5.97166 -0.00814653 5.16021 -0.0298276 4.38623 0.167195C3.61226 0.364218 2.90459 0.772608 2.3382 1.34909C1.83662 1.85969 1.46361 2.48803 1.2514 3.17984C1.03918 3.87165 0.994145 4.60612 1.12017 5.31981L1.10965 5.33062L0.437487 6.01595C0.298855 6.15729 0.188826 6.32541 0.113741 6.51062C0.0386562 6.69584 0 6.89448 0 7.09511C0 7.29574 0.0386562 7.49438 0.113741 7.67959C0.188826 7.86481 0.298855 8.03293 0.437487 8.17427C0.600862 8.34062 0.799269 8.46619 1.01739 8.54128C1.23552 8.61638 1.46753 8.63899 1.69551 8.60737C1.77678 8.9113 1.94718 9.18216 2.18355 9.38316C2.41992 9.58416 2.7108 9.70555 3.01668 9.73085C3.04811 10.1004 3.20877 10.4457 3.46893 10.703C3.72909 10.9602 4.07115 11.1121 4.43186 11.1303C4.4501 11.495 4.59534 11.8538 4.86828 12.132C5.40151 12.6768 6.23786 12.7237 6.82372 12.274L7.09525 12.5507C7.37778 12.8385 7.75959 13 8.15751 13C8.55544 13 8.93725 12.8385 9.21978 12.5507C9.47938 12.2848 9.62462 11.9468 9.65479 11.6009C10.0048 11.5702 10.3331 11.4138 10.582 11.1591C10.8309 10.9045 10.9846 10.568 11.016 10.2086C11.3243 10.1793 11.6162 10.0523 11.8512 9.84528C12.0862 9.63821 12.2528 9.36127 12.328 9.05272C12.5526 9.08015 12.7803 9.05511 12.9941 8.97949C13.2079 8.90388 13.4023 8.77962 13.5629 8.61602C13.7014 8.47469 13.8113 8.30661 13.8864 8.12147C13.9614 7.93632 14 7.73776 14 7.53722C14 7.33668 13.9614 7.13812 13.8864 6.95297C13.8113 6.76783 13.7014 6.59975 13.5629 6.45842L12.9784 5.86101L13.0991 5.38107C13.3603 4.33663 13.2288 3.22945 12.7307 2.28016C12.3685 1.59096 11.8313 1.01536 11.1762 0.614428C10.5211 0.213495 9.77256 0.00219205 9.00999 0.00294067H7.88248C7.83433 0.000705313 7.78613 -0.000255993 7.73794 5.79759e-05H7.18225ZM9.23452 3.56362L11.665 6.04334L11.6671 6.04694L11.6769 6.05631L12.817 7.22014C12.8578 7.26167 12.8901 7.31107 12.9122 7.36549C12.9342 7.41991 12.9456 7.47827 12.9456 7.53722C12.9456 7.59617 12.9342 7.65453 12.9122 7.70895C12.8901 7.76337 12.8578 7.81277 12.817 7.8543C12.7343 7.93836 12.6226 7.9855 12.5062 7.9855C12.3898 7.9855 12.2781 7.93836 12.1954 7.8543L11.0552 6.69047C10.9559 6.58943 10.8218 6.53275 10.682 6.53275C10.5422 6.53275 10.408 6.58943 10.3087 6.69047L10.2975 6.70272C10.2485 6.75257 10.2096 6.81189 10.1831 6.87726C10.1566 6.94263 10.1429 7.01276 10.1429 7.08358C10.1429 7.1544 10.1566 7.22452 10.1831 7.28989C10.2096 7.35526 10.2485 7.41459 10.2975 7.46444L11.1857 8.371C11.2267 8.41256 11.2592 8.46204 11.2814 8.5166C11.3036 8.57115 11.315 8.62968 11.315 8.6888C11.315 8.74792 11.3036 8.80645 11.2814 8.86101C11.2592 8.91556 11.2267 8.96505 11.1857 9.0066C11.1106 9.08298 11.0114 9.12918 10.906 9.13685C10.8005 9.14452 10.6959 9.11314 10.6111 9.0484C10.509 8.97002 10.3828 8.93205 10.2556 8.94144C10.1284 8.95084 10.0088 9.00697 9.9186 9.09957C9.82871 9.19186 9.7747 9.31467 9.76669 9.44496C9.75868 9.57525 9.79723 9.70406 9.8751 9.80723C9.93983 9.89353 9.97163 10.0011 9.96452 10.1098C9.95741 10.2185 9.91189 10.3208 9.83651 10.3974C9.76026 10.4751 9.65911 10.5215 9.55195 10.5281C9.44478 10.5348 9.33894 10.5011 9.25416 10.4335C9.15273 10.3522 9.02601 10.3116 8.89758 10.3191C8.76915 10.3267 8.64777 10.3819 8.55604 10.4745C8.46462 10.5669 8.40951 10.6907 8.40123 10.8221C8.39295 10.9536 8.43207 11.0835 8.51114 11.1873C8.57742 11.2749 8.61017 11.3844 8.60319 11.4951C8.59621 11.6059 8.54998 11.7102 8.47325 11.7883C8.38918 11.8736 8.27573 11.9215 8.15751 11.9215C8.03929 11.9215 7.92584 11.8736 7.84178 11.7883L7.58077 11.5224L7.65445 11.4467C7.79297 11.3054 7.90291 11.1373 7.97793 10.9521C8.05296 10.767 8.09158 10.5684 8.09158 10.3679C8.09158 10.1673 8.05296 9.96879 7.97793 9.78364C7.90291 9.5985 7.79297 9.43042 7.65445 9.28909C7.39204 9.02079 7.042 8.86208 6.67216 8.84374C6.652 8.47355 6.50206 8.12337 6.25004 7.8579C5.99803 7.59244 5.66098 7.42964 5.30118 7.39958C5.27269 7.03858 5.11909 6.70004 4.86828 6.44545C4.7049 6.2791 4.50649 6.15353 4.28837 6.07844C4.07025 6.00334 3.83824 5.98073 3.61025 6.01235C3.52152 5.68046 3.32676 5.38884 3.05726 5.1843C2.78776 4.97977 2.45915 4.8742 2.1242 4.88455C2.07067 4.37766 2.12924 3.86489 2.29555 3.3845C2.46187 2.9041 2.73164 2.46847 3.08473 2.11009C3.41365 1.77466 3.80682 1.51306 4.23933 1.34187C4.67184 1.17068 5.13425 1.09363 5.59727 1.11561L4.54693 1.93209C4.37624 2.06477 4.23279 2.23081 4.12482 2.42064C4.01684 2.61048 3.94649 2.82038 3.9178 3.03825C3.8891 3.25613 3.90264 3.47768 3.95763 3.69015C4.01262 3.90263 4.10798 4.10185 4.23821 4.27633C4.50124 4.62849 4.88917 4.85953 5.3174 4.91906C5.74563 4.9786 6.17941 4.86179 6.52412 4.59413L7.8495 3.5629L9.23452 3.56362ZM5.1819 2.7947L7.38432 1.08102H7.73794C7.7817 1.08082 7.82546 1.08202 7.86914 1.08462H9.00999C9.58241 1.08383 10.1444 1.24218 10.6362 1.54287C11.1281 1.84356 11.5316 2.27538 11.8039 2.79253C12.1512 3.45552 12.2599 4.21796 12.1154 4.95085L9.86247 2.64769C9.81344 2.59553 9.75468 2.55404 9.68972 2.52569C9.62475 2.49734 9.55489 2.48271 9.48429 2.48266H7.67339C7.55865 2.4826 7.44704 2.52107 7.35555 2.5922L5.88915 3.73297C5.76617 3.82829 5.61152 3.86988 5.45884 3.84869C5.30615 3.8275 5.1678 3.74525 5.07385 3.61983C5.02797 3.55842 4.99438 3.4883 4.97501 3.4135C4.95563 3.3387 4.95086 3.26071 4.96097 3.18401C4.97108 3.10731 4.99587 3.03342 5.03391 2.9666C5.07195 2.89978 5.12248 2.84136 5.18261 2.7947M2.82934 8.52666C2.78861 8.48513 2.75628 8.43573 2.73422 8.38131C2.71216 8.32689 2.70081 8.26853 2.70081 8.20958C2.70081 8.15063 2.71216 8.09226 2.73422 8.03784C2.75628 7.98342 2.78861 7.93403 2.82934 7.8925L3.5008 7.20789C3.58355 7.12383 3.69524 7.07669 3.81162 7.07669C3.92801 7.07669 4.03969 7.12383 4.12244 7.20789C4.20354 7.29074 4.24959 7.40307 4.25064 7.52054C4.25169 7.63802 4.20765 7.7512 4.12806 7.83557L4.12244 7.84205L3.45098 8.52666L3.44467 8.53314C3.36148 8.61448 3.25072 8.65937 3.13587 8.65829C3.02101 8.65722 2.91108 8.61026 2.82934 8.52738M2.48484 6.10027C2.56404 6.18479 2.6077 6.29792 2.60638 6.41522C2.60507 6.53252 2.5589 6.64459 2.47782 6.72722L1.80637 7.41327C1.72362 7.49733 1.61193 7.54447 1.49554 7.54447C1.37916 7.54447 1.26747 7.49733 1.18472 7.41327C1.14399 7.37174 1.11167 7.32234 1.08961 7.26792C1.06755 7.2135 1.05619 7.15514 1.05619 7.09619C1.05619 7.03724 1.06755 6.97888 1.08961 6.92446C1.11167 6.87004 1.14399 6.82064 1.18472 6.77911L1.85688 6.09378C1.93963 6.00973 2.05132 5.96258 2.1677 5.96258C2.28409 5.96258 2.39578 6.00973 2.47853 6.09378L2.48484 6.10027ZM6.23715 11.371C6.1544 11.4551 6.04272 11.5022 5.92633 11.5022C5.80995 11.5022 5.69826 11.4551 5.61551 11.371C5.57478 11.3295 5.54245 11.2801 5.52039 11.2257C5.49833 11.1713 5.48698 11.1129 5.48698 11.0539C5.48698 10.995 5.49833 10.9366 5.52039 10.8822C5.54245 10.8278 5.57478 10.7784 5.61551 10.7369L6.28697 10.0515C6.36972 9.96747 6.48141 9.92033 6.59779 9.92033C6.71418 9.92033 6.82586 9.96747 6.90861 10.0515C6.94934 10.0931 6.98167 10.1425 7.00373 10.1969C7.02579 10.2513 7.03715 10.3097 7.03715 10.3686C7.03715 10.4276 7.02579 10.4859 7.00373 10.5403C6.98167 10.5948 6.94934 10.6442 6.90861 10.6857L6.23715 11.371ZM4.81916 9.92398C4.73641 10.008 4.62472 10.0552 4.50834 10.0552C4.39196 10.0552 4.28027 10.008 4.19752 9.92398C4.11612 9.84119 4.0698 9.72876 4.06862 9.61111C4.06744 9.49346 4.11149 9.38008 4.1912 9.29558L4.19752 9.28981L4.86898 8.60449L4.87459 8.598C4.95791 8.51654 5.06886 8.47165 5.18389 8.47286C5.29891 8.47407 5.40895 8.52129 5.49062 8.60449C5.53135 8.64602 5.56368 8.69542 5.58574 8.74984C5.6078 8.80425 5.61916 8.86262 5.61916 8.92157C5.61916 8.98052 5.6078 9.03888 5.58574 9.0933C5.56368 9.14772 5.53135 9.19712 5.49062 9.23865L4.81916 9.92398Z" fill="black"/>
</svg>
