<svg width="14" height="14" viewBox="0 0 14 14" fill="none" xmlns="http://www.w3.org/2000/svg">
<path fill-rule="evenodd" clip-rule="evenodd" d="M12.8208 7.89587H1V5.92573C1 5.20006 1.58776 4.6123 2.31343 4.6123H11.5074C12.2331 4.6123 12.8208 5.20006 12.8208 5.92573V7.89587Z" stroke="black" stroke-width="1.04328" stroke-linecap="round" stroke-linejoin="round"/>
<path fill-rule="evenodd" clip-rule="evenodd" d="M10.1935 13.1487H3.62639C2.53822 13.1487 1.65625 12.2668 1.65625 11.1786V7.89502H12.1637V11.1786C12.1637 12.2668 11.2817 13.1487 10.1935 13.1487Z" stroke="black" stroke-width="1.04328" stroke-linecap="round" stroke-linejoin="round"/>
<path d="M6.91016 4.2832C6.91016 4.2832 6.91016 7.23842 6.91016 7.89521" stroke="black" stroke-width="1.04328" stroke-linecap="square" stroke-linejoin="round"/>
<path fill-rule="evenodd" clip-rule="evenodd" d="M6.91016 4.61156C6.91016 4.61156 7.62991 2.16793 8.88949 1.53223C10.2916 0.82429 11.6437 2.08649 10.2916 3.34935C9.61516 3.98046 8.26299 4.61156 6.91016 4.61156Z" stroke="black" stroke-width="1.04328" stroke-linecap="round" stroke-linejoin="round"/>
<path fill-rule="evenodd" clip-rule="evenodd" d="M6.90901 4.61156C6.90901 4.61156 6.18925 2.16793 4.92967 1.53223C3.52759 0.82429 2.17542 2.08649 3.52759 3.34935C4.20401 3.98046 5.55618 4.61156 6.90901 4.61156Z" stroke="black" stroke-width="1.04328" stroke-linecap="round" stroke-linejoin="round"/>
</svg>
