<svg width="12" height="12" viewBox="0 0 12 12" fill="none" xmlns="http://www.w3.org/2000/svg">
<path fill-rule="evenodd" clip-rule="evenodd" d="M2.56702 0.0241826C1.23089 0.13726 0.146518 1.23681 0.0258095 2.60102C-0.00860316 2.98993 -0.00860316 8.33528 0.0258095 8.72419C0.0857934 9.40201 0.356197 9.98636 0.834718 10.4721C1.31414 10.9589 1.9314 11.2465 2.6188 11.3035C3.01741 11.3366 8.31092 11.3366 8.70952 11.3035C9.39283 11.2469 9.99314 10.9716 10.4703 10.4962C10.9601 10.0082 11.242 9.40797 11.3025 8.72419C11.3369 8.33528 11.3369 2.98993 11.3025 2.60102C11.1796 1.21165 10.0991 0.136915 8.70952 0.0216668C8.343 -0.00870783 2.92971 -0.00648333 2.56702 0.0241826ZM9.04738 1.24465C9.60301 1.44771 10.0159 1.91789 10.1364 2.48479C10.1593 2.59254 10.1653 3.4398 10.1592 5.74205L10.151 8.85366L10.0797 9.04912C9.9061 9.52465 9.52539 9.90612 9.05188 10.079L8.85395 10.1513L5.72256 10.1583C2.27912 10.1661 2.46424 10.174 2.10923 10.0043C1.66584 9.79241 1.32896 9.38123 1.20548 8.90117C1.16773 8.75438 1.16394 8.40209 1.17024 5.60418L1.17728 2.47155L1.24862 2.27609C1.37066 1.94181 1.60368 1.63888 1.88674 1.44657C2.0623 1.32732 2.17006 1.27735 2.39496 1.21094C2.54347 1.16708 2.75841 1.16436 5.70387 1.16899L8.85395 1.17394L9.04738 1.24465ZM7.77932 3.42161C7.7124 3.43962 7.62624 3.4791 7.58783 3.50932C7.54942 3.53953 6.9634 4.23004 6.28558 5.04378C5.60775 5.85748 5.04654 6.52159 5.03841 6.51953C5.03026 6.51749 4.74355 6.26128 4.40125 5.95017C4.05897 5.63909 3.73584 5.35806 3.68321 5.3257C3.45995 5.18837 3.18169 5.23315 2.99427 5.43655C2.82504 5.62021 2.7911 5.84416 2.89826 6.07008C2.95324 6.18596 4.69219 7.78141 4.85584 7.8661C5.03748 7.96011 5.30934 7.92613 5.46873 7.78946C5.49956 7.76306 6.18072 6.95282 6.98241 5.98899C8.451 4.2234 8.4963 4.16294 8.4963 3.96777C8.4963 3.69721 8.27539 3.44939 7.99363 3.40384C7.94268 3.3956 7.84624 3.4036 7.77932 3.42161Z" fill="white"/>
</svg>
