<svg width="13" height="12" viewBox="0 0 13 12" fill="none" xmlns="http://www.w3.org/2000/svg">
<path fill-rule="evenodd" clip-rule="evenodd" d="M6.03428 1.03133C3.85683 1.26849 2.04416 2.93206 1.66817 5.05197C1.51529 5.91536 1.5938 6.74454 1.85056 7.4937C2.102 8.22952 2.1628 9.02913 1.86767 9.74871C1.51883 10.5999 1 10.8574 1 10.8574C1 10.8574 2.11263 11.2186 3.45605 10.7913C4.08113 10.5918 4.74221 10.5448 5.37909 10.7055C6.06851 10.8788 6.81518 10.9119 7.59019 10.7629C9.73045 10.3518 11.3885 8.55655 11.6004 6.42388C11.9114 3.2904 9.23227 0.682842 6.03428 1.03133Z" stroke="black" stroke-linecap="round" stroke-linejoin="round"/>
<path fill-rule="evenodd" clip-rule="evenodd" d="M6.85075 5.37549C6.56405 5.37549 6.33137 5.60407 6.33137 5.88571C6.33137 6.16735 6.56405 6.39593 6.85075 6.39593C7.13745 6.39593 7.37013 6.16735 7.37013 5.88571C7.37013 5.60407 7.13745 5.37549 6.85075 5.37549ZM4.56235 5.37562C4.27565 5.37562 4.04297 5.6042 4.04297 5.88584C4.04297 6.16748 4.27565 6.39606 4.56235 6.39606C4.84905 6.39606 5.08173 6.16748 5.08173 5.88584C5.08173 5.6042 4.84905 5.37562 4.56235 5.37562ZM8.62163 5.88571C8.62163 5.60407 8.85431 5.37549 9.14101 5.37549C9.42771 5.37549 9.66039 5.60407 9.66039 5.88571C9.66039 6.16735 9.42771 6.39593 9.14101 6.39593C8.85431 6.39593 8.62163 6.16735 8.62163 5.88571Z" fill="black"/>
</svg>
