<svg width="18" height="17" viewBox="0 0 18 17" fill="none" xmlns="http://www.w3.org/2000/svg">
<path d="M8.07786 0.574913C8.44544 -0.191638 9.55457 -0.191637 9.92215 0.574914L11.849 4.59306C11.9971 4.9021 12.2952 5.11564 12.6398 5.15963L17.1106 5.73032C17.9619 5.83899 18.3038 6.87026 17.6812 7.45136L14.3966 10.517C14.1459 10.751 14.0329 11.094 14.0964 11.4281L14.9295 15.811C15.0877 16.6428 14.1911 17.2811 13.4368 16.8738L9.49064 14.7437C9.18506 14.5788 8.81494 14.5788 8.50936 14.7437L4.56325 16.8738C3.80886 17.2811 2.91235 16.6428 3.07046 15.811C3.32231 14.4671 3.5116 13.3094 3.85144 12.5298C4.8143 11.1376 9.96842 9.2999 9.73634 9.00983C9.79851 8.74302 3.73816 10.0795 2.71866 9.52266L2.15227 9.18853L0.31879 7.45136C-0.303813 6.87026 0.0381218 5.83899 0.889427 5.73032L5.36017 5.15963C5.70477 5.11564 6.00286 4.9021 6.15105 4.59306L8.07786 0.574913Z" fill="url(#paint0_linear_4995_1979)"/>
<defs>
<linearGradient id="paint0_linear_4995_1979" x1="12.9136" y1="2.72871" x2="3.84377" y2="16.847" gradientUnits="userSpaceOnUse">
<stop stop-color="#FDD128"/>
<stop offset="0.625104" stop-color="#FF8D02"/>
</linearGradient>
</defs>
</svg>
