<svg width="18" height="15" viewBox="0 0 18 15" fill="none" xmlns="http://www.w3.org/2000/svg">
<path fill-rule="evenodd" clip-rule="evenodd" d="M11.4 10.5333H1.86667C1.38827 10.5333 1 10.1451 1 9.66667V2.73333C1 1.77567 1.77567 1 2.73333 1H9.66667C10.6243 1 11.4 1.77567 11.4 2.73333V10.5333Z" stroke="#E10001" stroke-linecap="round" stroke-linejoin="round"/>
<path fill-rule="evenodd" clip-rule="evenodd" d="M17.4671 10.5335H11.4004V4.4668H14.8671L17.4671 7.0668V10.5335Z" stroke="#E10001" stroke-linecap="round" stroke-linejoin="round"/>
<path fill-rule="evenodd" clip-rule="evenodd" d="M16 12C16 13.105 15.105 14 14 14C12.895 14 12 13.105 12 12C12 10.895 12.895 10 14 10C15.105 10 16 10.895 16 12Z" fill="white" stroke="#E10001" stroke-linecap="round" stroke-linejoin="round"/>
<path fill-rule="evenodd" clip-rule="evenodd" d="M6 12C6 13.105 5.105 14 4 14C2.895 14 2 13.105 2 12C2 10.895 2.895 10 4 10C5.105 10 6 10.895 6 12Z" fill="white" stroke="#E10001" stroke-linecap="round" stroke-linejoin="round"/>
</svg>
