<svg width="15" height="12" viewBox="0 0 15 12" fill="none" xmlns="http://www.w3.org/2000/svg">
<path d="M7.5 3.16678H14" stroke="black" stroke-linecap="round" stroke-linejoin="round"/>
<path d="M1 3.16678H3.16667" stroke="black" stroke-linecap="round" stroke-linejoin="round"/>
<path fill-rule="evenodd" clip-rule="evenodd" d="M5.33366 5.33333V5.33333C4.13694 5.33333 3.16699 4.36339 3.16699 3.16667V3.16667C3.16699 1.96994 4.13694 1 5.33366 1V1C6.53038 1 7.50033 1.96994 7.50033 3.16667V3.16667C7.50033 4.36339 6.53038 5.33333 5.33366 5.33333Z" stroke="black" stroke-linecap="round" stroke-linejoin="round"/>
<path d="M7.5 8.94461H1" stroke="black" stroke-linecap="round" stroke-linejoin="round"/>
<path d="M13.9997 8.94461H11.833" stroke="black" stroke-linecap="round" stroke-linejoin="round"/>
<path fill-rule="evenodd" clip-rule="evenodd" d="M9.66667 6.77783V6.77783C10.8634 6.77783 11.8333 7.74778 11.8333 8.9445V8.9445C11.8333 10.1412 10.8634 11.1112 9.66667 11.1112V11.1112C8.46994 11.1112 7.5 10.1412 7.5 8.9445V8.9445C7.5 7.74778 8.46994 6.77783 9.66667 6.77783Z" stroke="black" stroke-linecap="round" stroke-linejoin="round"/>
</svg>
