<svg width="25" height="25" viewBox="0 0 25 25" fill="none" xmlns="http://www.w3.org/2000/svg">
<circle cx="12.5" cy="12.5" r="12.5" fill="black"/>
<path d="M8.57262 8.72444C8.49387 9.54783 8.43861 11.005 8.9346 11.6253C8.9346 11.6253 8.70111 10.0245 10.7942 8.01617C11.637 7.20767 11.8318 6.10802 11.5375 5.28327C11.3703 4.81605 11.065 4.43009 10.7997 4.16059C10.645 4.00214 10.7638 3.74077 10.989 3.75025C12.3512 3.80984 14.559 4.1809 15.4971 6.48856C15.9088 7.50155 15.9392 8.54839 15.743 9.61284C15.6187 10.2927 15.1766 11.804 16.1851 11.9896C16.9049 12.1223 17.2531 11.5616 17.4092 11.158C17.4741 10.9901 17.6993 10.9481 17.8209 11.0822C19.0367 12.4378 19.1403 14.0345 18.8889 15.4091C18.4025 18.0661 15.6573 20 12.9301 20C9.52315 20 6.81111 18.0891 6.10789 14.6304C5.82467 13.2341 5.96835 10.4714 8.16506 8.5213C8.32808 8.37504 8.59473 8.50505 8.57262 8.72444Z" fill="url(#paint0_radial_3014_824)"/>
<path d="M14.073 13.5318C12.8354 11.9071 13.3895 10.0534 13.6932 9.31463C13.734 9.21743 13.6251 9.12578 13.5393 9.18549C13.0069 9.55485 11.9163 10.4241 11.4085 11.6475C10.7209 13.3013 10.7699 14.1108 11.177 15.0995C11.4221 15.6952 11.1375 15.8216 10.9946 15.8438C10.8557 15.866 10.7277 15.7716 10.6256 15.673C10.3318 15.3854 10.1225 15.0199 10.0211 14.6177C9.99928 14.5316 9.889 14.508 9.83862 14.5788C9.45739 15.1162 9.25996 15.9785 9.25043 16.5881C9.22048 18.4724 10.7468 19.9998 12.593 19.9998C14.9199 19.9998 16.615 17.3754 15.278 15.1814C14.8899 14.5427 14.5251 14.1247 14.073 13.5318Z" fill="url(#paint1_radial_3014_824)"/>
<defs>
<radialGradient id="paint0_radial_3014_824" cx="0" cy="0" r="1" gradientUnits="userSpaceOnUse" gradientTransform="translate(12.2553 20.0421) rotate(-179.756) scale(9.75222 15.6851)">
<stop offset="0.314" stop-color="#FF9800"/>
<stop offset="0.662" stop-color="#FF6D00"/>
<stop offset="0.972" stop-color="#F44336"/>
</radialGradient>
<radialGradient id="paint1_radial_3014_824" cx="0" cy="0" r="1" gradientUnits="userSpaceOnUse" gradientTransform="translate(12.721 10.2878) rotate(90.5675) scale(10.2556 7.56781)">
<stop offset="0.214" stop-color="#FFF176"/>
<stop offset="0.328" stop-color="#FFF27D"/>
<stop offset="0.487" stop-color="#FFF48F"/>
<stop offset="0.672" stop-color="#FFF7AD"/>
<stop offset="0.793" stop-color="#FFF9C4"/>
<stop offset="0.822" stop-color="#FFF8BD" stop-opacity="0.804"/>
<stop offset="0.863" stop-color="#FFF6AB" stop-opacity="0.529"/>
<stop offset="0.91" stop-color="#FFF38D" stop-opacity="0.209"/>
<stop offset="0.941" stop-color="#FFF176" stop-opacity="0"/>
</radialGradient>
</defs>
</svg>
