<svg xmlns="http://www.w3.org/2000/svg" width="18" height="18" viewBox="0 0 18 18" fill="none">
<path fill-rule="evenodd" clip-rule="evenodd" d="M17 9.88877H1V7.22211C1 6.23989 1.79555 5.44434 2.77778 5.44434H15.2222C16.2044 5.44434 17 6.23989 17 7.22211V9.88877Z" stroke="white" stroke-linecap="round" stroke-linejoin="round"/>
<path fill-rule="evenodd" clip-rule="evenodd" d="M13.4442 16.9998H4.55533C3.08245 16.9998 1.88867 15.806 1.88867 14.3331V9.88867H16.1109V14.3331C16.1109 15.806 14.9171 16.9998 13.4442 16.9998Z" stroke="white" stroke-linecap="round" stroke-linejoin="round"/>
<path d="M9 5V10" stroke="white" stroke-linecap="round" stroke-linejoin="round"/>
<path fill-rule="evenodd" clip-rule="evenodd" d="M9 5.44425C9 5.44425 9.97422 2.1367 11.6791 1.27626C13.5769 0.31804 15.4071 2.02648 13.5769 3.73581C12.6613 4.59003 10.8311 5.44425 9 5.44425Z" stroke="white" stroke-linecap="round" stroke-linejoin="round"/>
<path fill-rule="evenodd" clip-rule="evenodd" d="M9.00029 5.44425C9.00029 5.44425 8.02607 2.1367 6.32118 1.27626C4.42341 0.31804 2.59319 2.02648 4.42341 3.73581C5.33896 4.59003 7.16918 5.44425 9.00029 5.44425Z" stroke="white" stroke-linecap="round" stroke-linejoin="round"/>
</svg>