<svg xmlns="http://www.w3.org/2000/svg" width="19" height="19" viewBox="0 0 19 19" fill="none">
<path d="M9.50086 0C6.92085 0 6.59699 0.0113049 5.58372 0.0573794C4.57235 0.103739 3.88198 0.263812 3.27798 0.498745C2.65306 0.741373 2.12306 1.06598 1.59505 1.59418C1.06657 2.12228 0.74195 2.65228 0.49856 3.2769C0.26296 3.88109 0.102695 4.57173 0.0571899 5.58262C0.0118749 6.59597 0 6.91992 0 9.5C0 12.0801 0.0114 12.4029 0.05738 13.4161C0.10393 14.4275 0.264005 15.1179 0.49875 15.7219C0.74157 16.3468 1.06619 16.8768 1.59439 17.4048C2.1223 17.9333 2.65231 18.2586 3.27674 18.5013C3.88123 18.7362 4.57168 18.8963 5.58286 18.9426C6.59623 18.9887 6.9198 19 9.49971 19C12.08 19 12.4028 18.9887 13.4161 18.9426C14.4275 18.8963 15.1186 18.7362 15.7231 18.5013C16.3477 18.2586 16.8769 17.9333 17.4048 17.4048C17.9332 16.8768 18.2578 16.3468 18.5012 15.7222C18.7348 15.1179 18.8951 14.4273 18.9426 13.4163C18.9881 12.4031 19 12.0801 19 9.5C19 6.91992 18.9881 6.59616 18.9426 5.58281C18.8951 4.57145 18.7348 3.88119 18.5012 3.27718C18.2578 2.65228 17.9332 2.12228 17.4048 1.59418C16.8764 1.06579 16.3479 0.741183 15.7225 0.49884C15.1169 0.263812 14.4261 0.103644 13.4148 0.0573794C12.4014 0.0113049 12.0788 0 9.49791 0H9.50086ZM8.64861 1.71198C8.9016 1.7116 9.18384 1.71198 9.50086 1.71198C12.0374 1.71198 12.338 1.7211 13.3397 1.7666C14.266 1.80897 14.7687 1.96373 15.1036 2.09378C15.5469 2.26592 15.863 2.47178 16.1953 2.80437C16.5278 3.13687 16.7336 3.4535 16.9062 3.89686C17.0363 4.23126 17.1912 4.73399 17.2334 5.66023C17.2789 6.66171 17.2888 6.96248 17.2888 9.49782C17.2888 12.0331 17.2789 12.334 17.2334 13.3354C17.191 14.2616 17.0363 14.7644 16.9062 15.0989C16.7341 15.5422 16.5278 15.8579 16.1953 16.1902C15.8628 16.5227 15.5471 16.7285 15.1036 16.9007C14.7691 17.0313 14.266 17.1857 13.3397 17.2281C12.3382 17.2736 12.0374 17.2835 9.50086 17.2835C6.96417 17.2835 6.66349 17.2736 5.66209 17.2281C4.73584 17.1853 4.2331 17.0306 3.89794 16.9005C3.45467 16.7283 3.13794 16.5225 2.80544 16.19C2.47294 15.8575 2.26717 15.5417 2.09456 15.0981C1.9645 14.7636 1.80956 14.2609 1.76738 13.3346C1.72187 12.3332 1.71275 12.0324 1.71275 9.49544C1.71275 6.95859 1.72187 6.65934 1.76738 5.65786C1.80975 4.73162 1.9645 4.22888 2.09456 3.89401C2.26679 3.45065 2.47295 3.13402 2.80554 2.80152C3.13804 2.46903 3.45467 2.26316 3.89804 2.09064C4.23291 1.96002 4.73584 1.80565 5.66209 1.76309C6.53847 1.72347 6.8781 1.7116 8.64861 1.7096V1.71198ZM14.572 3.28934C13.9426 3.28934 13.432 3.79949 13.432 4.42895C13.432 5.05832 13.9426 5.56894 14.572 5.56894C15.2013 5.56894 15.712 5.05832 15.712 4.42895C15.712 3.79958 15.2013 3.28896 14.572 3.28896V3.28934ZM9.50086 4.62132C6.80665 4.62132 4.62222 6.80573 4.62222 9.5C4.62222 12.1943 6.80665 14.3776 9.50086 14.3776C12.1952 14.3776 14.3788 12.1943 14.3788 9.5C14.3788 6.80583 12.195 4.62132 9.50067 4.62132H9.50086ZM9.50086 6.3333C11.2497 6.3333 12.6676 7.75097 12.6676 9.5C12.6676 11.2488 11.2497 12.6667 9.50086 12.6667C7.7519 12.6667 6.33422 11.2488 6.33422 9.5C6.33422 7.75097 7.7519 6.3333 9.50086 6.3333Z" fill="#78779A"/>
</svg>