<svg width="12" height="12" viewBox="0 0 12 12" fill="none" xmlns="http://www.w3.org/2000/svg">
<path d="M7.45712 5.43826L5.18382 3.16441C5.29197 3.09478 5.41493 3.04071 5.5527 3.00219C5.69048 2.96367 5.84677 2.94441 6.02158 2.94441C6.48232 2.94441 6.87157 3.10515 7.18934 3.42663C7.50748 3.7481 7.66656 4.14291 7.66656 4.61105C7.66656 4.76438 7.64563 4.91882 7.60378 5.07438C7.56156 5.22993 7.51267 5.35122 7.45712 5.43826ZM2.77553 9.04709C3.26922 8.69302 3.77569 8.4208 4.29495 8.23043C4.8142 8.0397 5.38252 7.94433 5.99992 7.94433C6.43695 7.94433 6.83527 7.99766 7.1949 8.10433C7.55452 8.21099 7.84952 8.3208 8.07988 8.43377L5.9177 6.27158C5.47548 6.23714 5.10993 6.07732 4.82105 5.79214C4.53216 5.50696 4.3742 5.14326 4.34717 4.70105L2.68942 3.04274C2.35016 3.42237 2.07646 3.85921 1.86832 4.35328C1.6598 4.84697 1.55555 5.39585 1.55555 5.99992C1.55555 6.61731 1.66536 7.17749 1.88499 7.68044C2.10461 8.1834 2.40146 8.63895 2.77553 9.04709ZM9.35042 8.91431C9.66078 8.53469 9.92078 8.10507 10.1304 7.62545C10.3397 7.14582 10.4443 6.60398 10.4443 5.99992C10.4443 4.76846 10.0115 3.71977 9.14598 2.85386C8.28043 1.98795 7.23175 1.55518 5.99992 1.55555C5.43141 1.55555 4.90031 1.65314 4.40661 1.84832C3.91254 2.0435 3.47218 2.31053 3.08552 2.64942L9.35042 8.91431ZM5.99992 10.9998C5.30474 10.9998 4.6529 10.87 4.04439 10.6104C3.43589 10.3508 2.90627 9.99522 2.45553 9.54375C2.0048 9.09227 1.64943 8.56265 1.38944 7.95488C1.12944 7.34712 0.99963 6.69546 1 5.99992C1 5.30252 1.12981 4.65031 1.38944 4.04328C1.64906 3.43589 2.00461 2.90663 2.45609 2.45553C2.90756 2.00443 3.43718 1.64906 4.04495 1.38944C4.65272 1.12981 5.30437 1 5.99992 1C6.69731 1 7.34952 1.12981 7.95655 1.38944C8.56395 1.64906 9.0932 2.00461 9.5443 2.45609C9.99541 2.90756 10.3508 3.43663 10.6104 4.04328C10.87 4.64994 10.9998 5.30215 10.9998 5.99992C10.9998 6.69509 10.87 7.34693 10.6104 7.95544C10.3508 8.56395 9.99522 9.09357 9.54375 9.5443C9.09227 9.99504 8.56321 10.3504 7.95655 10.6104C7.34989 10.8704 6.69768 11.0002 5.99992 10.9998ZM5.99992 10.4443C6.51917 10.4443 7.02471 10.3511 7.51656 10.1648C8.00914 9.97855 8.44302 9.73689 8.8182 9.43986C8.4571 9.15023 8.01988 8.92116 7.50656 8.75265C6.99323 8.58413 6.49102 8.49988 5.99992 8.49988C5.50881 8.49988 5.01549 8.57876 4.51994 8.73654C4.02439 8.89431 3.57829 9.12875 3.18163 9.43986C3.55718 9.73689 3.99088 9.97855 4.48272 10.1648C4.97456 10.3511 5.4803 10.4443 5.99992 10.4443Z" fill="#FF3526" stroke="#FF3526" stroke-width="0.3"/>
</svg>
