<svg width="17" height="21" viewBox="0 0 17 21" fill="none" xmlns="http://www.w3.org/2000/svg">
<path fill-rule="evenodd" clip-rule="evenodd" d="M12.1773 4.67786L13.2747 3.58164L8.89709 0L4.51953 3.58164L5.61072 4.68252L8.11026 2.59003L8.10019 13.1311L9.64798 13.1327L9.65805 2.56284L12.1773 4.67786ZM2.48438 7.76514C2.48438 7.62707 2.59631 7.51514 2.73438 7.51514H6.50989V6.01514H2.73438C1.76788 6.01514 0.984375 6.79864 0.984375 7.76514V18.4999C0.984375 19.4664 1.76788 20.2499 2.73438 20.2499H15.0609C16.0274 20.2499 16.8109 19.4664 16.8109 18.4999V7.76514C16.8109 6.79864 16.0274 6.01514 15.0609 6.01514H11.2854V7.51514H15.0609C15.199 7.51514 15.3109 7.62707 15.3109 7.76514V18.4999C15.3109 18.6379 15.199 18.7499 15.0609 18.7499H2.73438C2.59631 18.7499 2.48438 18.6379 2.48438 18.4999V7.76514Z" fill="black"/>
</svg>
