<svg width="20" height="18" viewBox="0 0 20 18" fill="none" xmlns="http://www.w3.org/2000/svg">
<path d="M3 13C3.70915 14.2166 4.72948 15.2268 5.95831 15.929C7.18715 16.6312 8.58113 17.0006 10 17C11.4189 17.0006 12.8129 16.6312 14.0417 15.929C15.2705 15.2268 16.2909 14.2166 17 13M3 5C3.70915 3.78342 4.72948 2.77321 5.95831 2.07102C7.18715 1.36883 8.58113 0.999431 10 1C11.4189 0.999431 12.8129 1.36883 14.0417 2.07102C15.2705 2.77321 16.2909 3.78342 17 5" stroke="#78779A" stroke-width="1.5" stroke-linecap="round" stroke-linejoin="round"/>
<path d="M10.8182 17C10.8182 17 11.9702 15.5101 12.6959 13.0201M10.8182 1C10.8182 1 11.9702 2.48904 12.6959 4.9799M9.18182 17C9.18182 17 8.02982 15.511 7.30409 13.0201M9.18182 1C9.18182 1 8.02982 2.48904 7.30409 4.9799M7.54545 7.39196L8.77273 11.4121L10 7.39196L11.2273 11.4121L12.4545 7.39196M1 7.39196L2.22727 11.4121L3.45455 7.39196L4.68182 11.4121L5.90909 7.39196M14.0909 7.39196L15.3182 11.4121L16.5455 7.39196L17.7727 11.4121L19 7.39196" stroke="#78779A" stroke-width="1.5" stroke-linecap="round" stroke-linejoin="round"/>
</svg>

