<svg width="20" height="18" viewBox="0 0 20 18" fill="none" xmlns="http://www.w3.org/2000/svg">
<path d="M2.87109 12.8809C3.57311 14.0974 4.58318 15.1076 5.79965 15.8098C7.01613 16.512 8.3961 16.8814 9.80069 16.8809C11.2053 16.8814 12.5853 16.512 13.8017 15.8098C15.0182 15.1076 16.0283 14.0974 16.7303 12.8809M2.87109 4.88086C3.57311 3.66428 4.58318 2.65407 5.79965 1.95188C7.01613 1.24969 8.3961 0.88029 9.80069 0.88086C11.2053 0.88029 12.5853 1.24969 13.8017 1.95188C15.0182 2.65407 16.0283 3.66428 16.7303 4.88086" stroke="black" stroke-width="1.5" stroke-linecap="round" stroke-linejoin="round"/>
<path d="M10.6 16.8409C10.6 16.8409 11.7264 15.3585 12.436 12.8809M10.6 0.920898C10.6 0.920898 11.7264 2.4025 12.436 4.8809M9 16.8409C9 16.8409 7.8736 15.3593 7.164 12.8809M9 0.920898C9 0.920898 7.8736 2.4025 7.164 4.8809M7.4 7.2809L8.6 11.2809L9.8 7.2809L11 11.2809L12.2 7.2809M1 7.2809L2.2 11.2809L3.4 7.2809L4.6 11.2809L5.8 7.2809M13.8 7.2809L15 11.2809L16.2 7.2809L17.4 11.2809L18.6 7.2809" stroke="black" stroke-width="1.5" stroke-linecap="round" stroke-linejoin="round"/>
</svg>
