<svg width="16" height="15" viewBox="0 0 16 15" fill="none" xmlns="http://www.w3.org/2000/svg">
<path fill-rule="evenodd" clip-rule="evenodd" d="M7.78521 0.569569C4.85044 0.889209 2.40732 3.13138 1.90056 5.9886C1.69451 7.15228 1.80032 8.26985 2.14638 9.27957C2.48528 10.2713 2.56723 11.349 2.16945 12.3189C1.69928 13.4661 1 13.8131 1 13.8131C1 13.8131 2.4996 14.3 4.31027 13.724C5.15275 13.4552 6.04376 13.3919 6.90216 13.6084C7.83135 13.8421 8.83772 13.8866 9.88227 13.6858C12.7669 13.1317 15.0016 10.7121 15.2872 7.83767C15.7065 3.61436 12.0955 0.0998777 7.78521 0.569569Z" stroke="#8A8A8A" stroke-linecap="round" stroke-linejoin="round"/>
<path fill-rule="evenodd" clip-rule="evenodd" d="M8.88646 6.42432C8.50005 6.42432 8.18644 6.7324 8.18644 7.112C8.18644 7.49159 8.50005 7.79967 8.88646 7.79967C9.27287 7.79967 9.58648 7.49159 9.58648 7.112C9.58648 6.7324 9.27287 6.42432 8.88646 6.42432ZM5.80159 6.42444C5.41517 6.42444 5.10156 6.73252 5.10156 7.11212C5.10156 7.49172 5.41517 7.7998 5.80159 7.7998C6.188 7.7998 6.50161 7.49172 6.50161 7.11212C6.50161 6.73252 6.188 6.42444 5.80159 6.42444ZM11.2713 7.112C11.2713 6.7324 11.5849 6.42432 11.9713 6.42432C12.3577 6.42432 12.6714 6.7324 12.6714 7.112C12.6714 7.49159 12.3577 7.79967 11.9713 7.79967C11.5849 7.79967 11.2713 7.49159 11.2713 7.112Z" fill="#8A8A8A"/>
</svg>
