<svg width="16" height="15" viewBox="0 0 16 15" fill="none" xmlns="http://www.w3.org/2000/svg">
<path d="M7.04827 0.951057C7.34629 0.026974 8.65371 0.0269713 8.95173 0.951055L10.0096 4.23108C10.143 4.64493 10.5286 4.92509 10.9635 4.92414L14.4098 4.91661C15.3808 4.91448 15.7848 6.15791 14.998 6.7269L12.2054 8.74654C11.8531 9.00136 11.7058 9.45467 11.8411 9.86793L12.9132 13.1433C13.2153 14.0661 12.1576 14.8346 11.3733 14.2621L8.58955 12.2303C8.23832 11.9739 7.76168 11.9739 7.41045 12.2303L4.6267 14.2621C3.84243 14.8346 2.78471 14.0661 3.08677 13.1433L4.15892 9.86794C4.2942 9.45467 4.14691 9.00136 3.79456 8.74654L1.00196 6.72691C0.215194 6.15791 0.619206 4.91448 1.59015 4.91661L5.03653 4.92414C5.47137 4.92509 5.85698 4.64493 5.99045 4.23108L7.04827 0.951057Z" fill="#F7AC2A"/>
</svg>
