<svg width="20" height="20" viewBox="0 0 20 20" fill="none" xmlns="http://www.w3.org/2000/svg">
<mask id="mask0_1108_416" style="mask-type:luminance" maskUnits="userSpaceOnUse" x="0" y="0" width="20" height="21">
<path d="M10 20.0005C15.5228 20.0005 20 15.5233 20 10.0005C20 4.47764 15.5228 0.000488281 10 0.000488281C4.47715 0.000488281 0 4.47764 0 10.0005C0 15.5233 4.47715 20.0005 10 20.0005Z" fill="white"/>
</mask>
<g mask="url(#mask0_1108_416)">
<path d="M0 0.000488281L0.3125 0.859863L0 1.7583V2.65674L1.25 4.76611L0 6.87549V8.12549L1.25 10.0005L0 11.8755V13.1255L1.25 15.2349L0 17.3442V20.0005L0.859375 19.688L1.75781 20.0005H2.65625L4.76562 18.7505L6.875 20.0005H8.125L10 18.7505L11.875 20.0005H13.125L15.2344 18.7505L17.3438 20.0005H20L19.6875 19.1411L20 18.2427V17.3442L18.75 15.2349L20 13.1255V11.8755L18.75 10.0005L20 8.12549V6.87549L18.75 4.76611L20 2.65674V0.000488281L19.1406 0.312988L18.2422 0.000488281H17.3438L15.2344 1.25049L13.125 0.000488281H11.875L10 1.25049L8.125 0.000488281H6.875L4.76562 1.25049L2.65625 0.000488281H0Z" fill="#EEEEEE"/>
<path d="M13.125 0.000488281V4.21924L17.3438 0.000488281H13.125ZM20 2.65674L15.7812 6.87549H20V2.65674ZM0 6.87549H4.21875L0 2.65674V6.87549ZM2.65625 0.000488281L6.875 4.21924V0.000488281H2.65625ZM6.875 20.0005V15.7817L2.65625 20.0005H6.875ZM0 17.3442L4.21875 13.1255H0V17.3442ZM20 13.1255H15.7812L20 17.3442V13.1255ZM17.3438 20.0005L13.125 15.7817V20.0005H17.3438Z" fill="#0052B4"/>
<path d="M0 0.000488281V1.7583L5.11719 6.87549H6.875L0 0.000488281ZM8.125 0.000488281V8.12549H0V11.8755H8.125V20.0005H11.875V11.8755H20V8.12549H11.875V0.000488281H8.125ZM18.2422 0.000488281L13.125 5.11768V6.87549L20 0.000488281H18.2422ZM6.875 13.1255L0 20.0005H1.75781L6.875 14.8833V13.1255ZM13.125 13.1255L20 20.0005V18.2427L14.8828 13.1255H13.125Z" fill="#D80027"/>
</g>
</svg>
