<svg width="20" height="20" viewBox="0 0 20 20" fill="none" xmlns="http://www.w3.org/2000/svg">
<path d="M9.9664 0C5.63307 0 1.93307 2.8 0.566406 6.66667H19.4331C18.0331 2.8 14.3331 0 9.9664 0Z" fill="#F2B200"/>
<path d="M9.9664 20.0007C14.3331 20.0007 18.0331 17.234 19.3997 13.334H0.566406C1.93307 17.234 5.63307 20.0007 9.9664 20.0007Z" fill="#83BF4F"/>
<path d="M0.566667 6.66699C0.2 7.70033 0 8.83366 0 10.0003C0 11.167 0.2 12.3003 0.566667 13.3337H19.4333C19.8 12.3003 20 11.167 20 10.0003C20 8.83366 19.8 7.70033 19.4333 6.66699H0.566667Z" fill="#F5F5F5"/>
<path d="M9.96745 12.6673C11.4402 12.6673 12.6341 11.4734 12.6341 10.0007C12.6341 8.52789 11.4402 7.33398 9.96745 7.33398C8.49469 7.33398 7.30078 8.52789 7.30078 10.0007C7.30078 11.4734 8.49469 12.6673 9.96745 12.6673Z" fill="#428BC1"/>
<path d="M9.96615 12.3327C11.2548 12.3327 12.2995 11.288 12.2995 9.99935C12.2995 8.71068 11.2548 7.66602 9.96615 7.66602C8.67748 7.66602 7.63281 8.71068 7.63281 9.99935C7.63281 11.288 8.67748 12.3327 9.96615 12.3327Z" fill="#F5F5F5"/>
<path d="M9.10026 7.99935C9.19231 7.99935 9.26693 7.92473 9.26693 7.83268C9.26693 7.74063 9.19231 7.66602 9.10026 7.66602C9.00821 7.66602 8.93359 7.74063 8.93359 7.83268C8.93359 7.92473 9.00821 7.99935 9.10026 7.99935Z" fill="#428BC1"/>
<path d="M8.5651 8.30013C8.65715 8.30013 8.73177 8.22551 8.73177 8.13346C8.73177 8.04142 8.65715 7.9668 8.5651 7.9668C8.47306 7.9668 8.39844 8.04142 8.39844 8.13346C8.39844 8.22551 8.47306 8.30013 8.5651 8.30013Z" fill="#428BC1"/>
<path d="M8.13346 8.73372C8.22551 8.73372 8.30013 8.6591 8.30013 8.56706C8.30013 8.47501 8.22551 8.40039 8.13346 8.40039C8.04142 8.40039 7.9668 8.47501 7.9668 8.56706C7.9668 8.6591 8.04142 8.73372 8.13346 8.73372Z" fill="#428BC1"/>
<path d="M7.83268 9.26693C7.92473 9.26693 7.99935 9.19231 7.99935 9.10026C7.99935 9.00821 7.92473 8.93359 7.83268 8.93359C7.74063 8.93359 7.66602 9.00821 7.66602 9.10026C7.66602 9.19231 7.74063 9.26693 7.83268 9.26693Z" fill="#428BC1"/>
<path d="M7.66667 9.86654C7.75871 9.86654 7.83333 9.79192 7.83333 9.69987C7.83333 9.60782 7.75871 9.5332 7.66667 9.5332C7.57462 9.5332 7.5 9.60782 7.5 9.69987C7.5 9.79192 7.57462 9.86654 7.66667 9.86654Z" fill="#428BC1"/>
<path d="M7.66667 10.4661C7.75871 10.4661 7.83333 10.3915 7.83333 10.2995C7.83333 10.2074 7.75871 10.1328 7.66667 10.1328C7.57462 10.1328 7.5 10.2074 7.5 10.2995C7.5 10.3915 7.57462 10.4661 7.66667 10.4661Z" fill="#428BC1"/>
<path d="M7.83268 11.0667C7.92473 11.0667 7.99935 10.9921 7.99935 10.9001C7.99935 10.808 7.92473 10.7334 7.83268 10.7334C7.74063 10.7334 7.66602 10.808 7.66602 10.9001C7.66602 10.9921 7.74063 11.0667 7.83268 11.0667Z" fill="#428BC1"/>
<path d="M8.13346 11.5999C8.22551 11.5999 8.30013 11.5253 8.30013 11.4333C8.30013 11.3412 8.22551 11.2666 8.13346 11.2666C8.04142 11.2666 7.9668 11.3412 7.9668 11.4333C7.9668 11.5253 8.04142 11.5999 8.13346 11.5999Z" fill="#428BC1"/>
<path d="M8.5651 12.0326C8.65715 12.0326 8.73177 11.9579 8.73177 11.8659C8.73177 11.7738 8.65715 11.6992 8.5651 11.6992C8.47306 11.6992 8.39844 11.7738 8.39844 11.8659C8.39844 11.9579 8.47306 12.0326 8.5651 12.0326Z" fill="#428BC1"/>
<path d="M9.10026 12.3333C9.19231 12.3333 9.26693 12.2587 9.26693 12.1667C9.26693 12.0746 9.19231 12 9.10026 12C9.00821 12 8.93359 12.0746 8.93359 12.1667C8.93359 12.2587 9.00821 12.3333 9.10026 12.3333Z" fill="#428BC1"/>
<path d="M9.66667 12.4661C9.75871 12.4661 9.83333 12.3915 9.83333 12.2995C9.83333 12.2074 9.75871 12.1328 9.66667 12.1328C9.57462 12.1328 9.5 12.2074 9.5 12.2995C9.5 12.3915 9.57462 12.4661 9.66667 12.4661Z" fill="#428BC1"/>
<path d="M10.1348 12.3328C10.1348 12.2328 10.2014 12.1661 10.2681 12.1328C10.3681 12.1328 10.4348 12.1995 10.4681 12.2661C10.4681 12.3661 10.4014 12.4328 10.3348 12.4661C10.2014 12.4995 10.1348 12.4328 10.1348 12.3328Z" fill="#428BC1"/>
<path d="M10.8678 12.3333C10.9599 12.3333 11.0345 12.2587 11.0345 12.1667C11.0345 12.0746 10.9599 12 10.8678 12C10.7758 12 10.7012 12.0746 10.7012 12.1667C10.7012 12.2587 10.7758 12.3333 10.8678 12.3333Z" fill="#428BC1"/>
<path d="M11.3991 12.0326C11.4911 12.0326 11.5658 11.9579 11.5658 11.8659C11.5658 11.7738 11.4911 11.6992 11.3991 11.6992C11.307 11.6992 11.2324 11.7738 11.2324 11.8659C11.2324 11.9579 11.307 12.0326 11.3991 12.0326Z" fill="#428BC1"/>
<path d="M11.8327 11.5999C11.9247 11.5999 11.9993 11.5253 11.9993 11.4333C11.9993 11.3412 11.9247 11.2666 11.8327 11.2666C11.7406 11.2666 11.666 11.3412 11.666 11.4333C11.666 11.5253 11.7406 11.5999 11.8327 11.5999Z" fill="#428BC1"/>
<path d="M12.1335 11.0667C12.2255 11.0667 12.3001 10.9921 12.3001 10.9001C12.3001 10.808 12.2255 10.7334 12.1335 10.7334C12.0414 10.7334 11.9668 10.808 11.9668 10.9001C11.9668 10.9921 12.0414 11.0667 12.1335 11.0667Z" fill="#428BC1"/>
<path d="M12.3014 10.4661C12.3935 10.4661 12.4681 10.3915 12.4681 10.2995C12.4681 10.2074 12.3935 10.1328 12.3014 10.1328C12.2094 10.1328 12.1348 10.2074 12.1348 10.2995C12.1348 10.3915 12.2094 10.4661 12.3014 10.4661Z" fill="#428BC1"/>
<path d="M12.3016 9.86654C12.2016 9.86654 12.1349 9.79987 12.1016 9.7332C12.1016 9.6332 12.1682 9.56654 12.2349 9.5332C12.3349 9.5332 12.4016 9.59987 12.4349 9.66654C12.4682 9.76654 12.4016 9.8332 12.3016 9.86654Z" fill="#428BC1"/>
<path d="M12.1335 9.26693C12.2255 9.26693 12.3001 9.19231 12.3001 9.10026C12.3001 9.00821 12.2255 8.93359 12.1335 8.93359C12.0414 8.93359 11.9668 9.00821 11.9668 9.10026C11.9668 9.19231 12.0414 9.26693 12.1335 9.26693Z" fill="#428BC1"/>
<path d="M11.8327 8.73372C11.9247 8.73372 11.9993 8.6591 11.9993 8.56706C11.9993 8.47501 11.9247 8.40039 11.8327 8.40039C11.7406 8.40039 11.666 8.47501 11.666 8.56706C11.666 8.6591 11.7406 8.73372 11.8327 8.73372Z" fill="#428BC1"/>
<path d="M11.3991 8.30013C11.4911 8.30013 11.5658 8.22551 11.5658 8.13346C11.5658 8.04142 11.4911 7.9668 11.3991 7.9668C11.307 7.9668 11.2324 8.04142 11.2324 8.13346C11.2324 8.22551 11.307 8.30013 11.3991 8.30013Z" fill="#428BC1"/>
<path d="M11.0333 7.89988C11 7.99988 10.9 8.03322 10.8 7.99988C10.7 7.96655 10.6667 7.86655 10.7 7.76655C10.7333 7.66655 10.8333 7.63322 10.9333 7.66655C11.0333 7.73322 11.0667 7.83322 11.0333 7.89988ZM10.4333 7.69988C10.4333 7.79988 10.3333 7.86655 10.2333 7.83322C10.1333 7.83322 10.0667 7.73322 10.1 7.63322C10.1 7.53322 10.2 7.46655 10.3 7.49988C10.4 7.53322 10.4667 7.63322 10.4333 7.69988ZM9.83333 7.66655C9.83333 7.76655 9.76667 7.83322 9.7 7.86655C9.6 7.86655 9.53333 7.79988 9.5 7.73322C9.5 7.63322 9.56667 7.56655 9.63333 7.53322C9.73333 7.49988 9.83333 7.56655 9.83333 7.66655Z" fill="#428BC1"/>
<path d="M9.9668 10.5C10.2429 10.5 10.4668 10.2761 10.4668 10C10.4668 9.72386 10.2429 9.5 9.9668 9.5C9.69065 9.5 9.4668 9.72386 9.4668 10C9.4668 10.2761 9.69065 10.5 9.9668 10.5Z" fill="#428BC1"/>
<path d="M9.96719 7.66602L9.90052 9.09935L9.96719 9.99935L10.0672 9.09935L9.96719 7.66602ZM9.36719 7.73268L9.66719 9.16602L9.96719 9.99935L9.83385 9.09935L9.36719 7.73268Z" fill="#428BC1"/>
<path d="M8.80065 7.9668L9.46732 9.2668L9.96732 10.0001L9.60065 9.1668L8.80065 7.9668ZM8.33398 8.33346L9.30065 9.43346L9.96732 10.0001L9.40065 9.30013L8.33398 8.33346Z" fill="#428BC1"/>
<path d="M7.9668 8.83398L9.1668 9.63398L9.9668 10.0007L9.23346 9.46732L7.9668 8.83398Z" fill="#428BC1"/>
<path d="M7.73281 9.40039L9.09948 9.83372L9.96615 10.0004L9.13281 9.70039L7.73281 9.40039ZM7.63281 10.0004L9.09948 10.0671L9.96615 10.0004L9.09948 9.93372L7.63281 10.0004Z" fill="#428BC1"/>
<path d="M7.73438 10.6L9.13437 10.3L9.96771 10L9.10104 10.1667L7.73438 10.6ZM7.96771 11.1667L9.23437 10.5333L9.96771 10L9.16771 10.3667L7.96771 11.1667Z" fill="#428BC1"/>
<path d="M8.33398 11.6333L9.40065 10.7L9.96732 10L9.30065 10.5667L8.33398 11.6333ZM8.80065 12.0333L9.60065 10.8L9.96732 10L9.46732 10.7333L8.80065 12.0333Z" fill="#428BC1"/>
<path d="M9.36719 12.2667L9.83385 10.9L9.96719 10L9.66719 10.8333L9.36719 12.2667ZM9.96719 12.3333L10.0672 10.9L9.96719 10L9.90052 10.9L9.96719 12.3333ZM10.5672 12.2667L10.3005 10.8333L9.96719 10L10.1339 10.9L10.5672 12.2667Z" fill="#428BC1"/>
<path d="M11.1335 12.0333L10.5001 10.7333L9.9668 10L10.3668 10.8333L11.1335 12.0333ZM11.6335 11.6333L10.6668 10.5667L9.9668 10L10.5668 10.7L11.6335 11.6333Z" fill="#428BC1"/>
<path d="M12.0001 11.1671L10.8001 10.3671L9.9668 10.0004L10.7001 10.5337L12.0001 11.1671ZM12.2335 10.6004L10.8668 10.1671L9.9668 10.0004L10.8335 10.3004L12.2335 10.6004ZM12.3001 10.0004L10.8668 9.90039L9.9668 10.0004L10.8668 10.0671L12.3001 10.0004ZM12.2335 9.40039L10.8335 9.70039L9.9668 10.0004L10.8668 9.83372L12.2335 9.40039Z" fill="#428BC1"/>
<path d="M12.0001 8.83385L10.7001 9.46719L9.9668 10.0005L10.8001 9.63385L12.0001 8.83385ZM11.6335 8.36719L10.5668 9.30052L9.9668 10.0005L10.6668 9.43385L11.6335 8.36719Z" fill="#428BC1"/>
<path d="M11.1335 7.9668L10.3668 9.20013L9.9668 10.0001L10.5001 9.2668L11.1335 7.9668Z" fill="#428BC1"/>
<path d="M10.6001 7.7334L10.1335 9.10006L9.9668 10.0001L10.3001 9.16673L10.6001 7.7334Z" fill="#428BC1"/>
</svg>
