<svg width="22" height="19" viewBox="0 0 22 19" fill="none" xmlns="http://www.w3.org/2000/svg">
<path fill-rule="evenodd" clip-rule="evenodd" d="M16.899 0.0556847C16.2467 0.195364 15.6548 0.456428 15.1698 0.818295C15.0264 0.92533 12.8096 3.02734 10.2437 5.48938C5.72571 9.82456 5.5731 9.97648 5.40842 10.3022C4.87106 11.3651 5.06519 12.5099 5.92284 13.3356C6.45107 13.8442 7.12259 14.1136 7.86181 14.1136C8.31423 14.1136 8.61874 14.0442 9.07926 13.8358L9.47727 13.6558L12.5141 10.7571C14.2716 9.07943 15.5784 7.79752 15.6163 7.71403C15.8354 7.23006 15.4747 6.69331 14.9356 6.70107C14.813 6.70286 14.6621 6.72919 14.6002 6.75963C14.5382 6.79003 13.139 8.10226 11.4907 9.67564C8.59476 12.4401 8.48538 12.5387 8.2396 12.6075C7.92456 12.6957 7.80103 12.6966 7.50538 12.6125C7.20041 12.5257 6.89305 12.2691 6.75553 11.9862C6.61173 11.6905 6.60564 11.2635 6.74106 10.9748C6.81476 10.8177 7.85961 9.79375 11.4577 6.35239C15.7358 2.26051 16.1043 1.91963 16.4117 1.76865C16.8584 1.54925 17.21 1.46849 17.7185 1.46849C18.225 1.46849 18.5839 1.55041 19.0018 1.76139C19.4297 1.97734 19.7107 2.22132 19.9869 2.61696C20.3153 3.08711 20.4332 3.47014 20.4338 4.06926C20.4344 4.62996 20.3159 5.03729 20.0253 5.47404C19.8939 5.67161 18.1978 7.32387 14.0973 11.2489C7.89894 17.1822 8.05511 17.0433 7.24218 17.3435C6.13772 17.7514 4.93572 17.7201 3.90277 17.2565C3.4068 17.034 3.14092 16.8592 2.74095 16.4929C1.91908 15.7403 1.50678 14.8585 1.45921 13.7516C1.4313 13.103 1.50524 12.6553 1.73407 12.0871C2.03707 11.3347 2.00804 11.3651 6.83087 6.7373C9.29821 4.3697 11.3427 2.38414 11.3742 2.32495C11.4648 2.15433 11.4449 1.80834 11.3346 1.6374C11.1403 1.33634 10.7001 1.20801 10.3725 1.35688C10.2905 1.39414 8.20958 3.35652 5.74828 5.71766C1.68481 9.61582 1.24484 10.0519 0.965111 10.4591C0.621229 10.9597 0.432056 11.3366 0.254356 11.8752C-0.223024 13.3224 -0.0189614 15.0199 0.786802 16.3038C1.66608 17.7048 3.06727 18.6359 4.74796 18.9363C5.37288 19.0479 6.55095 19.008 7.15944 18.8545C7.78137 18.6976 8.38466 18.4369 8.94852 18.0815C9.39566 17.7997 9.85033 17.3759 15.2445 12.2127C20.0214 7.64031 21.1001 6.58596 21.2915 6.3019C22.872 3.95595 21.6947 0.927707 18.8874 0.118058C18.456 -0.00637523 17.3507 -0.0410372 16.899 0.0556847Z" fill="#A3A3A3"/>
</svg>
