<svg width="20" height="20" viewBox="0 0 20 20" fill="none" xmlns="http://www.w3.org/2000/svg">
<path d="M17.7647 19H18.8824M14.4118 19H12.1765V15.6471M15.5294 15.6471H18.8824V12.2941H17.7647M12.1765 12.2941H14.4118M1 15.6471C1 14.6054 1 14.0846 1.16988 13.6733C1.39674 13.1259 1.83172 12.6909 2.37918 12.464C2.79047 12.2941 3.31129 12.2941 4.35294 12.2941C5.39459 12.2941 5.91541 12.2941 6.32671 12.464C6.87435 12.6909 7.30912 13.1257 7.536 13.6733C7.70588 14.0846 7.70588 14.6054 7.70588 15.6471C7.70588 16.6887 7.70588 17.2096 7.536 17.6197C7.42379 17.891 7.25924 18.1375 7.05175 18.3452C6.84426 18.5529 6.59789 18.7177 6.32671 18.8301C5.91541 19 5.39459 19 4.35294 19C3.31129 19 2.79047 19 2.37918 18.8301C2.10807 18.7179 1.86173 18.5533 1.65424 18.3458C1.44675 18.1383 1.28216 17.892 1.16988 17.6209C1 17.2096 1 16.6887 1 15.6471ZM12.1765 4.47062C12.1765 3.42897 12.1765 2.90815 12.3464 2.49685C12.5732 1.94939 13.0082 1.51442 13.5556 1.28756C13.9669 1.11768 14.4878 1.11768 15.5294 1.11768C16.5711 1.11768 17.0919 1.11768 17.5032 1.28756C18.0508 1.51444 18.4856 1.94921 18.7125 2.49685C18.8824 2.90815 18.8824 3.42897 18.8824 4.47062C18.8824 5.51226 18.8824 6.03309 18.7125 6.44326C18.6003 6.71455 18.4357 6.96107 18.2282 7.16875C18.0207 7.37644 17.7744 7.54122 17.5032 7.65368C17.0919 7.82356 16.5711 7.82356 15.5294 7.82356C14.4878 7.82356 13.9669 7.82356 13.5556 7.65368C13.2845 7.5414 13.0382 7.37681 12.8307 7.16932C12.6232 6.96183 12.4586 6.71549 12.3464 6.44438C12.1765 6.03309 12.1765 5.51226 12.1765 4.47062ZM1 4.47062C1 3.42897 1 2.90815 1.16988 2.49685C1.39674 1.94939 1.83172 1.51442 2.37918 1.28756C2.79047 1.11768 3.31129 1.11768 4.35294 1.11768C5.39459 1.11768 5.91541 1.11768 6.32671 1.28756C6.87435 1.51444 7.30912 1.94921 7.536 2.49685C7.70588 2.90815 7.70588 3.42897 7.70588 4.47062C7.70588 5.51226 7.70588 6.03309 7.536 6.44326C7.42379 6.71455 7.25924 6.96107 7.05175 7.16875C6.84426 7.37644 6.59789 7.54122 6.32671 7.65368C5.91541 7.82356 5.39459 7.82356 4.35294 7.82356C3.31129 7.82356 2.79047 7.82356 2.37918 7.65368C2.10807 7.5414 1.86173 7.37681 1.65424 7.16932C1.44675 6.96183 1.28216 6.71549 1.16988 6.44438C1 6.03309 1 5.51226 1 4.47062Z" stroke="black" stroke-linecap="round" stroke-linejoin="round"/>
</svg>
