<svg width="12" height="12" viewBox="0 0 12 12" fill="none" xmlns="http://www.w3.org/2000/svg">
<path d="M8.7793 4.70335C8.7793 4.31038 8.62319 3.93352 8.34533 3.65565C8.06746 3.37778 7.69059 3.22168 7.29763 3.22168H2.48319C2.28861 3.22168 2.09594 3.26 1.91618 3.33446C1.73641 3.40893 1.57308 3.51806 1.43549 3.65565C1.2979 3.79324 1.18876 3.95657 1.1143 4.13634C1.03984 4.3161 1.00152 4.50877 1.00152 4.70335V9.51779C1.00152 9.71237 1.03984 9.90504 1.1143 10.0848C1.18876 10.2646 1.2979 10.4279 1.43549 10.5655C1.57308 10.7031 1.73641 10.8122 1.91618 10.8867C2.09594 10.9611 2.28861 10.9995 2.48319 10.9995H7.29763C7.49221 10.9995 7.68488 10.9611 7.86464 10.8867C8.0444 10.8122 8.20774 10.7031 8.34533 10.5655C8.48291 10.4279 8.59205 10.2646 8.66651 10.0848C8.74097 9.90504 8.7793 9.71237 8.7793 9.51779V4.70335Z" stroke="black" stroke-linecap="round" stroke-linejoin="round"/>
<path d="M10.4378 8.63167C10.6083 8.53476 10.7502 8.39443 10.8489 8.22494C10.9477 8.05545 10.9998 7.86283 11 7.66667V2.11111C11 1.5 10.5 1 9.88889 1H4.33333C3.91667 1 3.69 1.21389 3.5 1.55556" stroke="black" stroke-linecap="round" stroke-linejoin="round"/>
</svg>
