<svg width="16" height="16" viewBox="0 0 16 16" fill="none" xmlns="http://www.w3.org/2000/svg">
<path d="M11.6464 15.3536C11.8417 15.5488 12.1583 15.5488 12.3536 15.3536L15.5355 12.1716C15.7308 11.9763 15.7308 11.6597 15.5355 11.4645C15.3403 11.2692 15.0237 11.2692 14.8284 11.4645L12 14.2929L9.17157 11.4645C8.97631 11.2692 8.65973 11.2692 8.46447 11.4645C8.2692 11.6597 8.2692 11.9763 8.46447 12.1716L11.6464 15.3536ZM11.5 1L11.5 15L12.5 15L12.5 1L11.5 1Z" fill="black"/>
<path d="M3.64645 0.646446C3.84171 0.451184 4.15829 0.451184 4.35355 0.646446L7.53553 3.82843C7.7308 4.02369 7.7308 4.34027 7.53553 4.53553C7.34027 4.7308 7.02369 4.7308 6.82843 4.53553L4 1.70711L1.17157 4.53553C0.976311 4.7308 0.659729 4.7308 0.464467 4.53553C0.269204 4.34027 0.269204 4.02369 0.464467 3.82843L3.64645 0.646446ZM3.5 15L3.5 1L4.5 1L4.5 15L3.5 15Z" fill="black"/>
</svg>
