<svg width="15" height="15" viewBox="0 0 15 15" fill="none" xmlns="http://www.w3.org/2000/svg">
<path d="M10.245 0.997224L10.245 0.997222C10.4042 0.940144 10.6266 0.937137 10.8679 0.975682C11.1106 1.01445 11.378 1.09617 11.6304 1.21426C12.7943 1.75883 13.6802 2.79517 13.9832 3.97025C14.078 4.33769 14.0739 4.56747 13.9584 4.82223L13.9584 4.82224C13.9479 4.8452 13.9265 4.87537 13.8949 4.91433C13.8623 4.95448 13.8159 5.00763 13.7519 5.07753C13.6239 5.21739 13.4241 5.42632 13.1213 5.7362C12.5157 6.35608 11.4966 7.38149 9.81268 9.0696C8.16992 10.7165 7.14613 11.7389 6.51659 12.3576C6.20188 12.6669 5.98535 12.8756 5.83915 13.0111C5.76608 13.0789 5.71015 13.1287 5.66807 13.1638C5.62731 13.1979 5.59603 13.2211 5.57344 13.2321C5.5403 13.2483 5.47797 13.2683 5.38851 13.2929C5.29753 13.3178 5.17448 13.3484 5.0169 13.3853C4.70169 13.4592 4.24675 13.5586 3.63076 13.6886C2.63661 13.8983 2.11987 14.0059 1.82128 14.0387C1.67161 14.0552 1.57159 14.0536 1.49146 14.0343C1.40998 14.0147 1.35323 13.9777 1.2906 13.9337L10.245 0.997224ZM10.245 0.997224C10.1509 1.03098 10.0168 1.10482 9.94371 1.16366M10.245 0.997224L9.94371 1.16366M9.94371 1.16366C9.93271 1.17251 9.89382 1.2099 9.83375 1.26858C9.77223 1.32869 9.6857 1.41393 9.57701 1.52147C9.35963 1.73656 9.05341 2.04107 8.68083 2.41255C7.93567 3.15551 6.925 4.16651 5.82866 5.2662C4.06953 7.03075 3.07061 8.03559 2.50387 8.61767C2.2206 8.90861 2.04471 9.09453 1.93569 9.21713C1.82843 9.33775 1.78122 9.40197 1.76221 9.44778C1.74717 9.484 1.72369 9.56763 1.69467 9.6817C1.66521 9.7975 1.62905 9.94881 1.58874 10.1236C1.50809 10.4733 1.4106 10.918 1.31638 11.3626C1.22216 11.8072 1.13116 12.2521 1.06353 12.6021C1.02972 12.777 1.0017 12.9286 0.982031 13.0446C0.962705 13.1586 0.950584 13.243 0.950186 13.2803C0.949195 13.3727 0.951746 13.4376 0.966385 13.4966C0.981258 13.5565 1.00776 13.6072 1.04843 13.673L9.94371 1.16366ZM1.97777 13.0674C1.95232 13.0723 1.93029 13.0765 1.91188 13.0799C1.91535 13.0612 1.91961 13.0389 1.92461 13.0131C1.94117 12.9279 1.96559 12.8064 1.99544 12.6604C2.05512 12.3683 2.13641 11.9781 2.21966 11.5832C2.30292 11.1882 2.38812 10.7885 2.45562 10.4772C2.52139 10.1739 2.56966 9.95796 2.58332 9.90928L2.58534 9.90629C2.58895 9.90125 2.59456 9.89405 2.60244 9.88448C2.61812 9.86544 2.64107 9.83911 2.67112 9.80573C2.73111 9.73907 2.81791 9.64589 2.9279 9.52983C3.14781 9.2978 3.45949 8.97535 3.83262 8.59293C4.57884 7.82815 5.57032 6.82412 6.56384 5.82535C7.55735 4.82657 8.55279 3.83318 9.30693 3.08967C9.68403 2.71789 10.0007 2.40873 10.2265 2.19265C10.3395 2.08456 10.4294 2.00003 10.4928 1.94267C10.5246 1.91392 10.5491 1.89245 10.5664 1.87835C10.5718 1.8739 10.5762 1.87044 10.5797 1.86784C10.6286 1.87164 10.7421 1.88998 10.8474 1.91234L10.8578 1.86343L10.8474 1.91234C11.2152 1.9904 11.6136 2.20729 11.975 2.51052C12.3362 2.81346 12.6575 3.20009 12.8724 3.61369C12.934 3.73236 12.9991 3.89419 13.0488 4.04372C13.0736 4.11835 13.0943 4.18922 13.1087 4.24946C13.1214 4.30208 13.1286 4.34403 13.1304 4.37263C13.1292 4.37413 13.1279 4.37584 13.1263 4.37779C13.1168 4.3896 13.102 4.40679 13.0815 4.42969C13.0406 4.47531 12.9788 4.54149 12.896 4.62848C12.7304 4.80236 12.4816 5.05816 12.1492 5.39635C11.4845 6.07267 10.4859 7.07786 9.15068 8.41474L5.16638 12.4041L3.51654 12.7514C3.05892 12.8478 2.64174 12.9341 2.33828 12.9957C2.18653 13.0264 2.06333 13.051 1.97777 13.0674Z" fill="#78779A" stroke="#78779A" stroke-width="0.1"/>
</svg>
