<svg width="34" height="27" viewBox="0 0 34 27" fill="none" xmlns="http://www.w3.org/2000/svg">
<path d="M4.52595 26.9994H29.474C32.4866 26.9994 34 25.4745 34 22.4535V4.54589C34 1.52489 32.4866 0 29.474 0H4.52595C1.52812 0.000625724 0 1.51112 0 4.54589V22.4541C0 25.4895 1.52812 26.9994 4.52595 26.9994ZM23.9396 13.4637C23.2908 12.8774 22.556 12.5689 21.7781 12.5689C20.9707 12.5689 20.2641 12.848 19.6012 13.4493L13.0871 19.3743L10.4208 16.9102C9.81505 16.3677 9.16629 16.0742 8.47509 16.0742C7.84048 16.0742 7.22062 16.3533 6.63028 16.8958L2.32078 20.8397V4.66477C2.32078 3.13926 3.12758 2.36211 4.569 2.36211H29.431C30.8577 2.36211 31.6792 3.13926 31.6792 4.66477V20.8554L23.9396 13.4637ZM10.7375 13.6251C12.597 13.6251 14.1245 12.0708 14.1245 10.1643C14.1245 8.2727 12.597 6.70338 10.7375 6.70338C8.86435 6.70338 7.33684 8.2727 7.33684 10.1643C7.33847 11.0815 7.69725 11.9608 8.33462 12.6094C8.97199 13.2581 9.836 13.6233 10.7375 13.6251Z" fill="#CDCDCD"/>
</svg>
