<svg width="18" height="12" viewBox="0 0 18 12" fill="none" xmlns="http://www.w3.org/2000/svg">
<path d="M9 12C8.64515 12 8.34523 11.8801 8.10025 11.6404C7.85526 11.4007 7.73277 11.1072 7.73277 10.76C7.73277 10.4123 7.85526 10.1185 8.10025 9.8788C8.34523 9.63908 8.64515 9.51922 9 9.51922C9.35485 9.51922 9.65477 9.63908 9.89975 9.8788C10.1447 10.1185 10.2672 10.4123 10.2672 10.76C10.2672 11.1072 10.1447 11.4007 9.89975 11.6404C9.65477 11.8801 9.35485 12 9 12ZM4.34469 7.90997L3.50179 7.07552C4.21697 6.3757 5.04202 5.82773 5.97693 5.4316C6.91184 5.03494 7.92035 4.8366 9.00247 4.8366C10.0846 4.8366 11.0926 5.03547 12.0264 5.43322C12.9591 5.8315 13.783 6.38215 14.4982 7.08519L13.6553 7.90997C13.0511 7.31873 12.3507 6.85515 11.5542 6.51922C10.7578 6.18328 9.90634 6.01532 9 6.01532C8.09366 6.01532 7.24224 6.18328 6.44576 6.51922C5.64927 6.85515 4.94892 7.31873 4.34469 7.90997ZM0.8429 4.48347L0 3.65869C1.14694 2.52996 2.48586 1.63773 4.01675 0.981994C5.5471 0.327331 7.20818 0 9 0C10.7918 0 12.4529 0.327869 13.9832 0.983606C15.5141 1.63881 16.8531 2.53077 18 3.6595L17.1571 4.48347C16.0997 3.4488 14.8742 2.63934 13.4806 2.05509C12.0871 1.47084 10.5935 1.17845 9 1.17791C7.40703 1.17791 5.91376 1.4703 4.52019 2.05509C3.12661 2.63988 1.90085 3.44934 0.8429 4.48347Z" fill="#E10001"/>
</svg>
