<svg width="25" height="25" viewBox="0 0 25 25" fill="none" xmlns="http://www.w3.org/2000/svg">
<rect width="25" height="25" rx="12.5" fill="white"/>
<path d="M16.8315 18.3581C15.9915 19.2024 15.0744 19.0691 14.1916 18.6691C13.2573 18.2603 12.4002 18.2425 11.4145 18.6691C10.1802 19.2202 9.52883 19.0602 8.79171 18.3581C4.60896 13.8875 5.22609 7.07948 9.97453 6.83063C11.1316 6.89284 11.9373 7.48832 12.6145 7.54165C13.6259 7.32834 14.5944 6.71509 15.6744 6.79508C16.9686 6.90173 17.9457 7.435 18.5886 8.39487C15.9144 10.0569 16.5486 13.7098 19 14.7319C18.5114 16.065 17.8772 17.3893 16.8229 18.367L16.8315 18.3581ZM12.5287 6.7773C12.4002 4.79533 13.9516 3.15998 15.7344 3C15.9829 5.29304 13.7287 6.9995 12.5287 6.7773Z" fill="black"/>
</svg>
