<svg width="25" height="25" viewBox="0 0 25 25" fill="none" xmlns="http://www.w3.org/2000/svg">
<path fill-rule="evenodd" clip-rule="evenodd" d="M12.5 0C5.59644 0 0 5.59644 0 12.5C0 19.4036 5.59644 25 12.5 25C19.4036 25 25 19.4036 25 12.5C25 5.59644 19.4036 0 12.5 0ZM14.1916 18.6691C15.0744 19.0691 15.9915 19.2024 16.8315 18.3581L16.8229 18.367C17.8772 17.3893 18.5114 16.065 19 14.7319C16.5486 13.7098 15.9144 10.0569 18.5886 8.39487C17.9457 7.435 16.9686 6.90173 15.6744 6.79508C14.9849 6.74401 14.3409 6.97548 13.7021 7.20505C13.3403 7.33509 12.9802 7.46452 12.6145 7.54165C12.3274 7.51904 12.0173 7.39903 11.6671 7.26351C11.1912 7.07932 10.6412 6.86647 9.97453 6.83063C5.22609 7.07948 4.60896 13.8875 8.79171 18.3581C9.52883 19.0602 10.1802 19.2202 11.4145 18.6691C12.4002 18.2425 13.2573 18.2603 14.1916 18.6691ZM12.5287 6.7773C12.4002 4.79533 13.9516 3.15998 15.7344 3C15.9829 5.29304 13.7287 6.9995 12.5287 6.7773Z" fill="white"/>
</svg>
